<svg xmlns="http://www.w3.org/2000/svg" width="19.417" height="26.49" viewBox="0 0 19.417 26.49"><defs><style>.a{fill:#00d04c;}</style></defs><g transform="translate(0)"><path class="a" d="M9.708,0A9.719,9.719,0,0,0,0,9.708c0,2.459,1.55,5.934,4.606,10.327a69.289,69.289,0,0,0,4.523,5.8l.579.653.579-.653a69.384,69.384,0,0,0,4.523-5.8c3.056-4.393,4.606-7.868,4.606-10.327A9.719,9.719,0,0,0,9.708,0Zm3.84,19.139c-1.51,2.172-3.036,4.042-3.84,5-.8-.951-2.322-2.813-3.831-4.983C3.045,15.08,1.549,11.815,1.549,9.708a8.16,8.16,0,0,1,16.319,0c0,2.1-1.494,5.365-4.32,9.43Zm0,0"/><path class="a" d="M82.629,69.352a5.73,5.73,0,1,0,5.73,5.73A5.736,5.736,0,0,0,82.629,69.352Zm0,9.911a4.181,4.181,0,1,1,4.181-4.181A4.186,4.186,0,0,1,82.629,79.263Zm0,0" transform="translate(-72.92 -65.763)"/></g></svg>