<svg xmlns="http://www.w3.org/2000/svg" width="21.88" height="21.88" viewBox="0 0 21.88 21.88"><defs><style>.a{fill:#00d04c;}</style></defs><path class="a" d="M21.88,11.581V10.3H20.319a9.349,9.349,0,0,0-.711-3.011l.035-.034a3.548,3.548,0,0,0-5.018-5.018l-.034.035a9.349,9.349,0,0,0-3.011-.711V0H10.3V1.561a9.349,9.349,0,0,0-3.011.711l-.034-.035A3.548,3.548,0,0,0,2.237,7.255l.035.034A9.349,9.349,0,0,0,1.561,10.3H0v1.282H1.561a9.349,9.349,0,0,0,.711,3.011l-.035.034a3.548,3.548,0,0,0,5.018,5.018l.034-.035a9.349,9.349,0,0,0,3.011.711V21.88h1.282V20.319a9.349,9.349,0,0,0,3.011-.711l.034.035a3.548,3.548,0,0,0,5.018-5.018l-.035-.034a9.349,9.349,0,0,0,.711-3.011ZM10.94,14.7a3.755,3.755,0,1,1,2.66-1.1A3.736,3.736,0,0,1,10.94,14.7Zm3.567-7.326a5.032,5.032,0,0,0-1.037-.8l2.22-2.22A8.13,8.13,0,0,1,17.524,6.19L15.3,8.41A5.027,5.027,0,0,0,14.507,7.373ZM12.18,6.052a5.081,5.081,0,0,0-2.481,0L7.32,3.673a8.154,8.154,0,0,1,7.24,0ZM6.19,4.356l2.22,2.22A5.049,5.049,0,0,0,6.576,8.41L4.356,6.19A8.135,8.135,0,0,1,6.19,4.356ZM3.673,7.32,6.053,9.7a5.081,5.081,0,0,0,0,2.481l-2.38,2.38a8.157,8.157,0,0,1,0-7.24Zm2.9,6.15A5.049,5.049,0,0,0,8.41,15.3l-2.22,2.22A8.135,8.135,0,0,1,4.356,15.69ZM9.7,15.827a5.07,5.07,0,0,0,2.481,0l2.38,2.38a8.158,8.158,0,0,1-7.24,0Zm5.991,1.7L13.47,15.3A5.049,5.049,0,0,0,15.3,13.47l2.22,2.22a8.135,8.135,0,0,1-1.834,1.834Zm2.517-2.964-2.38-2.38a5.081,5.081,0,0,0,0-2.481l2.38-2.38a8.157,8.157,0,0,1,0,7.24Zm.529-11.416a2.269,2.269,0,0,1,.243,2.917,9.511,9.511,0,0,0-3.16-3.16,2.269,2.269,0,0,1,2.917.243Zm-15.592,0A2.269,2.269,0,0,1,6.061,2.9,9.511,9.511,0,0,0,2.9,6.061a2.269,2.269,0,0,1,.243-2.917Zm0,15.592A2.269,2.269,0,0,1,2.9,15.819a9.511,9.511,0,0,0,3.16,3.16,2.269,2.269,0,0,1-2.917-.243Zm15.592,0a2.269,2.269,0,0,1-2.917.243,9.511,9.511,0,0,0,3.16-3.16,2.269,2.269,0,0,1-.243,2.917Zm0,0" transform="translate(0)"/></svg>