<svg xmlns="http://www.w3.org/2000/svg" width="21.88" height="19.786" viewBox="0 0 21.88 19.786"><defs><style>.a{fill:#00d04c;}</style></defs><path class="a" d="M21.1,11.813a1.7,1.7,0,0,1-1.57-.008l-.933-.5a3,3,0,0,0-2.769-.014l-.7.364V3.448a2.168,2.168,0,0,1,2.166-2.166h1.087V0H17.292a3.452,3.452,0,0,0-3.448,3.448v.826H8.467V3.448a2.168,2.168,0,0,1,2.166-2.166H11.72V0H10.633A3.452,3.452,0,0,0,7.185,3.448v8.446a1.588,1.588,0,0,1-.2-.089l-.934-.5a3,3,0,0,0-2.769-.014l-1,.52a1.7,1.7,0,0,1-1.57-.008L0,11.422v1.454l.112.06a3,3,0,0,0,2.767.014l1-.52a1.7,1.7,0,0,1,1.572.008l.933.5a3,3,0,0,0,2.767.014l1-.52a1.7,1.7,0,0,1,1.572.008l.934.5a3,3,0,0,0,2.767.014l1-.52a1.7,1.7,0,0,1,1.572.008l.933.5a3,3,0,0,0,2.767.014l.19-.1V11.4Zm-7.253.176a1.664,1.664,0,0,1-.587-.183l-.933-.5a3,3,0,0,0-2.769-.014l-1,.52c-.029.015-.059.029-.089.043V9.5h5.377Zm0-3.771H8.467V5.555h5.377Zm0,0" transform="translate(0 0)"/><path class="a" d="M21.1,332.957a1.7,1.7,0,0,1-1.57-.008l-.933-.5a3,3,0,0,0-2.769-.014l-1,.52a1.7,1.7,0,0,1-1.57-.008l-.934-.5a3,3,0,0,0-2.769-.014l-1,.52a1.7,1.7,0,0,1-1.57-.008l-.933-.5a3,3,0,0,0-2.769-.014l-1,.52a1.7,1.7,0,0,1-1.57-.008L0,332.566v1.454l.112.06a3,3,0,0,0,2.767.014l1-.52a1.7,1.7,0,0,1,1.572.008l.933.5a3,3,0,0,0,2.767.014l1-.52a1.7,1.7,0,0,1,1.572.008l.934.5a3,3,0,0,0,2.767.014l1-.52a1.7,1.7,0,0,1,1.572.008l.933.5a3,3,0,0,0,2.767.014l.19-.1v-1.446Zm0,0" transform="translate(0.001 -317.913)"/><path class="a" d="M21.1,409.575a1.7,1.7,0,0,1-1.57-.007l-.933-.5a3,3,0,0,0-2.769-.014l-1,.52a1.7,1.7,0,0,1-1.57-.008l-.934-.5a3,3,0,0,0-2.769-.014l-1,.52a1.7,1.7,0,0,1-1.57-.008l-.934-.5a3,3,0,0,0-2.769-.014l-1,.52a1.7,1.7,0,0,1-1.57-.008L0,409.185v1.454l.112.06a3,3,0,0,0,2.767.014l1-.52a1.7,1.7,0,0,1,1.572.008l.933.5a3,3,0,0,0,2.767.014l1-.52a1.7,1.7,0,0,1,1.572.008l.934.5a3,3,0,0,0,2.767.014l1-.52a1.7,1.7,0,0,1,1.572.008l.933.5a3,3,0,0,0,2.767.014l.19-.1v-1.446Zm0,0" transform="translate(0.001 -391.257)"/></svg>