<svg xmlns="http://www.w3.org/2000/svg" width="21.944" height="21.944" viewBox="0 0 21.944 21.944"><defs><style>.a{fill:#00d04c;}</style></defs><path class="a" d="M21.549,17.624a2.857,2.857,0,0,1-.5-.261,4.253,4.253,0,0,0-4.422-.117,9.466,9.466,0,0,0,1.419-4.976v-.218a.633.633,0,0,0-.312-.544l-.974-.576V6.343h.643a.634.634,0,1,0,0-1.269h-.888L15.409,2.888a.644.644,0,0,0-.575-.351H12.906V.634A.639.639,0,0,0,12.263,0H9.691a.639.639,0,0,0-.643.634v1.9H7.12a.644.644,0,0,0-.575.351L5.437,5.075H4.548a.634.634,0,1,0,0,1.269h.643v4.589l-.974.576a.633.633,0,0,0-.312.544v.218A9.467,9.467,0,0,0,5.29,17.19a4.255,4.255,0,0,0-4.324.173,2.854,2.854,0,0,1-.55.282.632.632,0,0,0-.368.82.646.646,0,0,0,.831.363,4.147,4.147,0,0,0,.8-.409,2.935,2.935,0,0,1,3.187,0,4.156,4.156,0,0,0,4.57,0,2.861,2.861,0,0,1,3.144,0,4.155,4.155,0,0,0,4.57,0,2.935,2.935,0,0,1,3.187,0,4.149,4.149,0,0,0,.724.379.646.646,0,0,0,.839-.346.631.631,0,0,0-.351-.827ZM10.334,1.269H11.62V2.537H10.334ZM7.517,3.806h6.92l.643,1.269H6.874ZM6.477,6.343h9v3.827L11.308,7.7a.653.653,0,0,0-.662,0L6.477,10.171Zm2.247,11.02a2.857,2.857,0,0,1-1.35.462,8.145,8.145,0,0,1-2.181-5.415l5.142-3.044v7.367a4.155,4.155,0,0,0-1.61.629Zm2.9-.639V9.367l5.142,3.044a8.145,8.145,0,0,1-2.176,5.409,2.857,2.857,0,0,1-1.291-.457,4.154,4.154,0,0,0-1.674-.64Z" transform="translate(-0.005 0)"/><path class="a" d="M21.549,455.444a2.766,2.766,0,0,1-.5-.291,3.887,3.887,0,0,0-4.613,0,2.563,2.563,0,0,1-3.144,0,3.8,3.8,0,0,0-4.57,0,2.563,2.563,0,0,1-3.144,0,3.887,3.887,0,0,0-4.613,0,2.759,2.759,0,0,1-.55.314.73.73,0,0,0-.368.914.626.626,0,0,0,.831.4,4.008,4.008,0,0,0,.8-.456,2.685,2.685,0,0,1,3.187,0,3.871,3.871,0,0,0,2.2.775,3.845,3.845,0,0,0,2.374-.775,2.616,2.616,0,0,1,3.144,0,3.864,3.864,0,0,0,2.247.776h.037a3.858,3.858,0,0,0,2.287-.776,2.685,2.685,0,0,1,3.187,0,4.02,4.02,0,0,0,.724.423.624.624,0,0,0,.839-.386A.733.733,0,0,0,21.549,455.444Z" transform="translate(-0.005 -435.162)"/></svg>