<svg xmlns="http://www.w3.org/2000/svg" width="23" height="23" viewBox="0 0 23 23"><defs><style>.a{fill:#004a98;}</style></defs><path class="a" d="M22.583,455.4a2.994,2.994,0,0,1-.522-.278,4.381,4.381,0,0,0-4.835,0,2.963,2.963,0,0,1-3.3,0,4.307,4.307,0,0,0-4.79,0,2.963,2.963,0,0,1-3.3,0,4.381,4.381,0,0,0-4.835,0,2.96,2.96,0,0,1-.576.3.674.674,0,0,0,.486,1.257,4.314,4.314,0,0,0,.838-.435,3.037,3.037,0,0,1,3.34,0,4.251,4.251,0,0,0,4.79,0,2.963,2.963,0,0,1,3.3,0,4.25,4.25,0,0,0,4.79,0,3.038,3.038,0,0,1,3.341,0,4.317,4.317,0,0,0,.757.4.674.674,0,0,0,.512-1.246Z" transform="translate(-0.002 -433.983)"/><path class="a" d="M22.583,395.4a3,3,0,0,1-.522-.278,4.381,4.381,0,0,0-4.835,0,2.963,2.963,0,0,1-3.3,0,4.307,4.307,0,0,0-4.79,0,2.963,2.963,0,0,1-3.3,0,4.381,4.381,0,0,0-4.835,0,2.963,2.963,0,0,1-.576.3.674.674,0,1,0,.486,1.257,4.31,4.31,0,0,0,.838-.435,3.037,3.037,0,0,1,3.34,0,4.307,4.307,0,0,0,4.79,0,2.962,2.962,0,0,1,3.3,0,4.306,4.306,0,0,0,4.79,0,3.038,3.038,0,0,1,3.341,0,4.323,4.323,0,0,0,.757.4.674.674,0,0,0,.512-1.246Z" transform="translate(-0.002 -376.678)"/><path class="a" d="M214.373,0h-2.7A.673.673,0,0,0,211,.674v.674h4.043V.674A.673.673,0,0,0,214.373,0Z" transform="translate(-201.526)"/><path class="a" d="M142.219,60.372l-.488.975H152l-.488-.975a.674.674,0,0,0-.6-.372h-8.086A.674.674,0,0,0,142.219,60.372Z" transform="translate(-135.364 -57.305)"/><path class="a" d="M105.154,120H91.678a.674.674,0,0,0,0,1.348h.674v3.3l5.024-3.014a2.025,2.025,0,0,1,2.079,0l5.025,3.015v-3.3h.674a.674.674,0,0,0,0-1.348Z" transform="translate(-86.916 -114.609)"/><path class="a" d="M91,190.932a10.3,10.3,0,0,0,.611,3.722,5.658,5.658,0,0,1,1.892.8,1.617,1.617,0,0,0,1.8,0,5.653,5.653,0,0,1,2.435-.9v-8.043l-6.411,3.847A.674.674,0,0,0,91,190.932Z" transform="translate(-86.916 -178.13)"/><path class="a" d="M277.414,190.355,271,186.508v8.038a5.649,5.649,0,0,1,2.5.906,1.617,1.617,0,0,0,1.8,0,5.659,5.659,0,0,1,1.819-.782,10.282,10.282,0,0,0,.617-3.739A.674.674,0,0,0,277.414,190.355Z" transform="translate(-258.829 -178.13)"/></svg>