<svg xmlns="http://www.w3.org/2000/svg" width="22.123" height="22.123" viewBox="0 0 22.123 22.123"><defs><style>.a{fill:#004a98;}</style></defs><g transform="translate(6.525 15.642)"><path class="a" d="M214.241,362A3.241,3.241,0,1,1,211,365.241,3.244,3.244,0,0,1,214.241,362Zm-.648,3.889h1.3v-1.3h-1.3Z" transform="translate(-211 -362)"/></g><g transform="translate(1.216)"><path class="a" d="M123.459,0h5.185a5.928,5.928,0,0,1,5.308,3.444,5.286,5.286,0,0,0-2.716-.765h-10.37a5.286,5.286,0,0,0-2.716.765A5.928,5.928,0,0,1,123.459,0Z" transform="translate(-118.151)"/></g><g transform="translate(0 3.975)"><path class="a" d="M93.932,92H104.3a3.889,3.889,0,1,1,0,7.778h-1.3a3.854,3.854,0,0,1-3.332-1.92l-.557-.939-.557.939a3.854,3.854,0,0,1-3.332,1.92h-1.3a3.889,3.889,0,1,1,0-7.778Z" transform="translate(-90 -92)"/></g><g transform="translate(6.451 11.269)"><path class="a" d="M241.967,260.794a5.112,5.112,0,0,0,2.666,1.623,3.171,3.171,0,0,1-5.332,0A5.11,5.11,0,0,0,241.967,260.794Z" transform="translate(-239.301 -260.794)"/></g><g transform="translate(14.091 11.753)"><path class="a" d="M0,277.833H.86A4.574,4.574,0,0,0,5.44,273.3V272H8.032v1.3A7.167,7.167,0,0,1,.86,280.426H0a4.472,4.472,0,0,0,.212-1.3A4.473,4.473,0,0,0,0,277.833Z" transform="translate(0 -272)"/></g><g transform="translate(19.53 9.16)"><g transform="translate(0)"><rect class="a" width="2.593" height="1.296"/></g></g><g transform="translate(19.53)"><g transform="translate(0)"><rect class="a" width="2.593" height="7.864"/></g></g></svg>