<svg xmlns="http://www.w3.org/2000/svg" width="19.373" height="22.967" viewBox="0 0 19.373 22.967"><defs><style>.a{fill:#004a98;}</style></defs><g transform="translate(19.373 22.967) rotate(180)"><g transform="translate(12.497 0)"><path class="a" d="M318.642,141.348v-6.687a3.444,3.444,0,0,1,2.689-3.355v-5.868h-1.4v-1.5h4.3v1.5h-1.4v5.868a3.444,3.444,0,0,1,2.689,3.355v6.687Zm5.379-4.748H320.14v3.25h3.881Z" transform="translate(-318.642 -123.941)"/></g><g transform="translate(0.055 8.122)"><path class="a" d="M50.142,5.076a10.048,10.048,0,0,0-1.366,4.987h.73v4.781H43.435V10.063h.73A10.049,10.049,0,0,0,42.8,5.076,11.448,11.448,0,0,1,41.275,0h3.162l.291.607a2.136,2.136,0,0,0,1.742,1.42A2.136,2.136,0,0,0,48.212.606L48.5,0h3.162A11.449,11.449,0,0,1,50.142,5.076Z" transform="translate(-41.275)"/></g><g transform="translate(0)"><path class="a" d="M47.338,402.947l-.291-.606a2.136,2.136,0,0,0-1.742-1.42,2.136,2.136,0,0,0-1.742,1.419l-.291.607H40.055v-5.122h10.5v5.122Z" transform="translate(-40.055 -397.825)"/></g></g></svg>