<svg xmlns="http://www.w3.org/2000/svg" width="22.029" height="22.029" viewBox="0 0 22.029 22.029"><defs><style>.a{fill:#004a98;}</style></defs><g transform="translate(22.029 22.029) rotate(180)"><path class="a" d="M122.242,155.394,116.848,150h0l5.4,5.395Zm0,0" transform="translate(-111.821 -139.819)"/><path class="a" d="M167.785,332.7l.913.913.913-.913-.913-.913Zm0,0" transform="translate(-160.566 -325.857)"/><path class="a" d="M195.013,3.717A4.526,4.526,0,0,1,191,6.532V.082h.378Zm0,0" transform="translate(-182.782 15.493)"/><path class="a" d="M131,6.454h1.291V0H131Zm0,0" transform="translate(-125.364 15.575)"/><path class="a" d="M4.342,1.022,1.786,5.276H4.346v6.45A4.523,4.523,0,0,1,0,7.212V5.276H.28L3.4.082Zm0,0" transform="translate(0 10.299)"/><path class="a" d="M331.785,168.7l.913.913.913-.913-.913-.913Zm0,0" transform="translate(-317.51 -154.805)"/><path class="a" d="M44.563,50.738H44.3L30,36.443v-.267A6.182,6.182,0,0,1,36.175,30h.267l14.3,14.3v.267A6.182,6.182,0,0,1,44.563,50.738ZM36.841,34.1,34.1,36.841l2.738,2.738,2.738-2.738ZM43.9,41.159,41.159,43.9,43.9,46.635,46.635,43.9Zm0,0" transform="translate(-28.709 -30)"/></g></svg>