<svg xmlns="http://www.w3.org/2000/svg" width="109.86" height="71.904" viewBox="0 0 109.86 71.904"><defs><style>.a{fill:#fff;}.b{fill:#00d04c;}</style></defs><g transform="translate(-0.006 0.016)"><g transform="translate(0.006 -0.016)"><path class="a" d="M38.072,41.822a1.66,1.66,0,0,1-.651,0,1.57,1.57,0,0,1-1.353-1.1l-.741-2.554a20.173,20.173,0,0,1-12.883,9.844,6.6,6.6,0,0,0-2.554,1.277c-.472.485-.932,1.277-1.749,1.149s-1.06-.677-1.392-1.277c0-.1-.37-1.009-2.336-2.132A19.943,19.943,0,0,1,4.378,34.341l-1.341,2.2a1.609,1.609,0,0,1-1.609.8,1.353,1.353,0,0,1-.613-.217A1.622,1.622,0,0,1,.228,34.9l3.6-6.065a1.634,1.634,0,0,1,1.622-.8,3.486,3.486,0,0,1,1.136.421l5.12,3.332a1.622,1.622,0,0,1,.447,2.247,1.647,1.647,0,0,1-2.26.5L7.442,32.923a.7.7,0,0,0,0,.319c1.277,5.107,6.18,8.708,9.908,9.729l.626-5v-.089a6.626,6.626,0,0,0-1.277-5.2,1.558,1.558,0,0,1-.472-1.353,1.787,1.787,0,0,1,.843-1.213c.881-.485,1.813-2.477,2.375-5.107l3.537.4c-.077,2.694.345,4.852,1.085,5.541a1.813,1.813,0,0,1,.511,1.392,1.545,1.545,0,0,1-.792,1.187,6.486,6.486,0,0,0-2.49,4.456l-.677,5.362c3.83-.153,9.435-2.426,11.925-6.971a1.047,1.047,0,0,1,.128-.306l-2.822.97A1.673,1.673,0,0,1,27.781,36a1.647,1.647,0,0,1,1.034-2.068l5.8-1.979a3.83,3.83,0,0,1,1.277-.115,1.609,1.609,0,0,1,1.366,1.175L39.2,39.767a1.66,1.66,0,0,1-1.124,2.056ZM10.212,21.3a2.72,2.72,0,0,1,3.013-2.285A2.643,2.643,0,0,1,15.2,20.3l4.967.626.255-2.081v-.089a4.788,4.788,0,1,1,3.256.409v.089l-.255,2.081,5.043.638a2.63,2.63,0,0,1,2.26-.817,2.707,2.707,0,0,1-.677,5.362,2.554,2.554,0,0,1-1.979-1.277l-13.266-1.7a2.668,2.668,0,0,1-2.26.817A2.732,2.732,0,0,1,10.212,21.3Zm2.094.268a.566.566,0,1,0,.632-.492.566.566,0,0,0-.632.492Zm4.4,27.553a.14.14,0,0,0,0-.1.128.128,0,0,0,0,.1ZM21.1,14.334a1.545,1.545,0,0,0,1.277,1.685A1.519,1.519,0,0,0,24.1,14.742a1.545,1.545,0,1,0-3.064-.4Zm8.746,9.448a.547.547,0,1,0,.613-.472.562.562,0,0,0-.613.472Z" transform="translate(-0.006 2.707)"/><path class="a" d="M37.182,6.669a2.119,2.119,0,0,1-.817.14c-.664,0-1.111-.421-1.277-1.277a2.629,2.629,0,0,1-.115-.523,1.864,1.864,0,0,1,0-.37,1.558,1.558,0,0,1,1.149-1.417A34.37,34.37,0,0,1,40.6,1.945a19.637,19.637,0,0,1,4.571-.383,9.972,9.972,0,0,1,2.119.294,5.694,5.694,0,0,1,1.787.907,4.252,4.252,0,0,1,1.277,1.545,4.724,4.724,0,0,1,.447,2.349,4.7,4.7,0,0,1-.447,1.851,7.993,7.993,0,0,1-1.124,1.7,13.623,13.623,0,0,1-1.558,1.532,21.194,21.194,0,0,1-1.787,1.277q-.919.587-1.8,1.072c-.587.319-1.124.6-1.609.83s-.613.46-.613.7a.863.863,0,0,0,.613.715c1.468.562,2.962,1.111,4.494,1.609s3.077,1.072,4.647,1.685c.741.306,1.1.741,1.072,1.277a1.609,1.609,0,0,1-.255.83,5.924,5.924,0,0,1-.562.766,1.736,1.736,0,0,1-1.519.83,2.885,2.885,0,0,1-.766-.14c-.881-.383-1.826-.766-2.847-1.175L43.63,20.8c-1.06-.4-2.094-.792-3.128-1.162l-2.911-.919a3.217,3.217,0,0,0-.638-.153.5.5,0,0,0-.255.064.383.383,0,0,0-.1.306.727.727,0,0,0,0,.153.97.97,0,0,1,0,.192,7.463,7.463,0,0,0,.128.83l.153,1.047A8.477,8.477,0,0,0,37,22.2a6.171,6.171,0,0,1,0,.8,1.647,1.647,0,0,1-1.277,1.57l-.932.255-.383.089h-.357c-.753,0-1.175-.511-1.277-1.456-.243-2.554-.587-5.018-1.021-7.469s-.907-4.928-1.494-7.329a2.17,2.17,0,0,1,0-.357,1.034,1.034,0,0,1,0-.281,1.507,1.507,0,0,1,1.277-1.456l.715-.2.472-.115.268-.064h.179a1.443,1.443,0,0,1,1.4,1.277c.255,1.085.5,2.145.715,3.154s.421,2.017.6,3.013c.089.485.281.728.575.741h.294l.4-.14,1.634-.817c.638-.332,1.277-.689,2-1.1s1.392-.817,2.068-1.277A18.808,18.808,0,0,0,44.613,9.67,8.3,8.3,0,0,0,45.89,8.393a2.26,2.26,0,0,0,.549-1.277,1.953,1.953,0,0,0-.1-.689,1.149,1.149,0,0,0-.409-.562,2.209,2.209,0,0,0-.817-.37,5.465,5.465,0,0,0-1.277-.166,9.1,9.1,0,0,0-1.647.077,13.56,13.56,0,0,0-1.724.306c-.575.128-1.136.281-1.7.46S37.68,6.478,37.182,6.669Z" transform="translate(8.365 0.45)"/><path class="a" d="M63.933,17.679a1.851,1.851,0,0,1,1.2-.485,1.149,1.149,0,0,1,.587.192,3.051,3.051,0,0,1,.587.536,4.494,4.494,0,0,1,.421.792,1.277,1.277,0,0,1,.115.587,1.57,1.57,0,0,1-.664,1.162,13.457,13.457,0,0,1-2.2,1.417A15.411,15.411,0,0,1,61.52,22.9a15.142,15.142,0,0,1-2.63.613,15.9,15.9,0,0,1-2.681.153,11.708,11.708,0,0,1-3.128-.523,9.142,9.142,0,0,1-2.554-1.277,7.737,7.737,0,0,1-1.864-1.953,7.086,7.086,0,0,1-1.047-2.554,2.247,2.247,0,0,0-.319-.766.651.651,0,0,0-.5-.192,1.685,1.685,0,0,1-1.162-.409,1.392,1.392,0,0,1-.383-1.1.983.983,0,0,1,0-.37v-.409a2,2,0,0,1,.447-1.06,1.277,1.277,0,0,1,.958-.306h.306a1.277,1.277,0,0,0,1.277-.766,11.019,11.019,0,0,1,1.724-2.554,10.725,10.725,0,0,1,2.3-1.941A10.112,10.112,0,0,1,54.97,6.214a9.384,9.384,0,0,1,2.9-.383,9.04,9.04,0,0,1,2.86.549,7.265,7.265,0,0,1,2.285,1.277,5.822,5.822,0,0,1,1.507,1.9,4.724,4.724,0,0,1,.5,2.3,3.83,3.83,0,0,1-.383,1.532,3.613,3.613,0,0,1-1,1.2,4.864,4.864,0,0,1-1.532.817,7.775,7.775,0,0,1-2,.37l-7.214.485a1.072,1.072,0,0,0-.689.192.677.677,0,0,0-.268.549,1.647,1.647,0,0,0,.37,1.047,3.55,3.55,0,0,0,1.047.919,6.512,6.512,0,0,0,1.532.664,7.15,7.15,0,0,0,1.8.281,9.014,9.014,0,0,0,1.839-.115,12.3,12.3,0,0,0,1.89-.447,13.163,13.163,0,0,0,1.813-.741,11.631,11.631,0,0,0,1.711-.932Zm-4.443-5.5a.958.958,0,0,0,.549-.281.792.792,0,0,0,.243-.575.906.906,0,0,0-.2-.6,2.26,2.26,0,0,0-.613-.5,3.358,3.358,0,0,0-.894-.37,4.3,4.3,0,0,0-1.1-.166,7,7,0,0,0-1.749.192,7.725,7.725,0,0,0-1.634.6,4.979,4.979,0,0,0-1.277.855,1.481,1.481,0,0,0-.485.945c0,.319.179.485.562.5a11.057,11.057,0,0,0,1.149,0l1.749-.14,1.992-.2C58.43,12.317,58.979,12.253,59.49,12.176Z" transform="translate(12.512 1.634)"/><path class="a" d="M74.771,9.172a.626.626,0,0,0,.255,0c.294,0,.46-.179.472-.587L75.7,2.2A2.286,2.286,0,0,1,76.316.464,2.643,2.643,0,0,1,78.167,0a2.554,2.554,0,0,1,1.826.6,2.553,2.553,0,0,1,.472,1.864,8.609,8.609,0,0,1-.1,1.456c-.1.638-.14,1.366-.2,2.183s-.153,1.685-.23,2.617-.115,1.851-.153,2.771a20.071,20.071,0,0,0,.179,3.664,8.8,8.8,0,0,0,.741,2.554,3.945,3.945,0,0,0,1.277,1.545,3.09,3.09,0,0,0,1.66.536,3.154,3.154,0,0,0,.945-.1,3.511,3.511,0,0,1,1.009-.1.792.792,0,0,1,.677.447,1.839,1.839,0,0,1,.255,1.034,1.8,1.8,0,0,1-.357,1.009,3,3,0,0,1-.894.792,4.328,4.328,0,0,1-1.277.511,6.026,6.026,0,0,1-1.519.153,5.107,5.107,0,0,1-3.077-1.149,6.243,6.243,0,0,1-2.056-3.23c0-.217-.1-.332-.2-.332s-.2.1-.281.319a11.057,11.057,0,0,1-1.583,2.566,9.716,9.716,0,0,1-2.158,2,9.141,9.141,0,0,1-2.656,1.277,9.384,9.384,0,0,1-3.013.357,8.184,8.184,0,0,1-3.013-.638,7.048,7.048,0,0,1-3.83-3.984,7.341,7.341,0,0,1-.4-2.847,8.708,8.708,0,0,1,.945-3.83,10.214,10.214,0,0,1,2.349-3A10.751,10.751,0,0,1,66.88,9.082a10.38,10.38,0,0,1,4.035-.638,11.836,11.836,0,0,1,1.8.23,16,16,0,0,1,2.056.5ZM68.387,21.646a4.137,4.137,0,0,0,2.119-.447,6.2,6.2,0,0,0,1.685-1.277,8.35,8.35,0,0,0,1.277-1.711,14.043,14.043,0,0,0,.868-1.851,13.471,13.471,0,0,0,.511-1.622,5.374,5.374,0,0,0,.179-1.034.639.639,0,0,0-.115-.409A.843.843,0,0,0,74.554,13L73.4,12.708l-1.175-.243-1.111-.153-.958-.064a6.486,6.486,0,0,0-2.273.306,4.75,4.75,0,0,0-2.924,2.554,5.388,5.388,0,0,0-.46,2.056,4.775,4.775,0,0,0,.243,1.8,4.034,4.034,0,0,0,.792,1.468,3.83,3.83,0,0,0,1.277.919,4.188,4.188,0,0,0,1.6.358Z" transform="translate(16.651 0.016)"/><path class="a" d="M42.011,21.262a11.887,11.887,0,0,1,2.847.447,16.342,16.342,0,0,1,2.668,1.021,8.529,8.529,0,0,1,1.966,1.341,1.941,1.941,0,0,1,.741,1.392,1.277,1.277,0,0,1-.319.728,4.418,4.418,0,0,1-.728.741,3.473,3.473,0,0,1-.919.575,2.107,2.107,0,0,1-.868.217,2.043,2.043,0,0,1-1.1-.46l-1.277-.958a12.627,12.627,0,0,0-1.57-.983,4.43,4.43,0,0,0-1.877-.472,1.877,1.877,0,0,0-1.1.281,1.085,1.085,0,0,0-.447.894,1.532,1.532,0,0,0,.46,1.06,7.751,7.751,0,0,0,1.277,1.136c.536.383,1.136.8,1.813,1.277s1.379.907,2.081,1.392,1.4,1.034,2.081,1.609a12.959,12.959,0,0,1,1.787,1.864,8.491,8.491,0,0,1,1.277,2.158,6.1,6.1,0,0,1,.409,2.554,5.107,5.107,0,0,1-.485,2.107,4.686,4.686,0,0,1-1.277,1.6,5.554,5.554,0,0,1-1.864,1,6.793,6.793,0,0,1-2.324.294,8.516,8.516,0,0,1-2.924-.587,7.112,7.112,0,0,1-2.285-1.4,6.129,6.129,0,0,1-1.481-2.158,6.3,6.3,0,0,1-.46-2.554,4.252,4.252,0,0,1,.741-2.63,2.975,2.975,0,0,1,3.46-.383.958.958,0,0,1,.5.817,1.9,1.9,0,0,1-.1.511q-.089.255-.192.536a3.831,3.831,0,0,0-.192.575,2.554,2.554,0,0,0-.089.626,2.337,2.337,0,0,0,.217,1.047,2.937,2.937,0,0,0,.638.894,3.409,3.409,0,0,0,.97.651,3.294,3.294,0,0,0,1.175.268c1.1,0,1.673-.409,1.7-1.277a3.039,3.039,0,0,0-.7-2.158,12.959,12.959,0,0,0-2.081-1.966c-.83-.638-1.736-1.277-2.707-1.941a32.264,32.264,0,0,1-2.694-2.03,12.423,12.423,0,0,1-2.068-2.234,4.2,4.2,0,0,1-.766-2.554,4.443,4.443,0,0,1,.536-2.03,4.9,4.9,0,0,1,1.277-1.57,5.975,5.975,0,0,1,1.928-.983A7.1,7.1,0,0,1,42.011,21.262Z" transform="translate(9.933 5.903)"/><path class="a" d="M64.063,35.007a1.851,1.851,0,0,1,1.2-.485,1.277,1.277,0,0,1,.6.192,3.039,3.039,0,0,1,.575.536,4.494,4.494,0,0,1,.421.792,1.277,1.277,0,0,1,.115.6,1.583,1.583,0,0,1-.651,1.149,14.148,14.148,0,0,1-2.26,1.417A15.411,15.411,0,0,1,61.6,40.229a14.875,14.875,0,0,1-2.643.613A15.82,15.82,0,0,1,56.275,41a11.708,11.708,0,0,1-3.128-.523A9.065,9.065,0,0,1,50.593,39.2a7.571,7.571,0,0,1-1.851-1.979,6.843,6.843,0,0,1-1.034-2.554,2.554,2.554,0,0,0-.319-.766.7.7,0,0,0-.511-.192,1.685,1.685,0,0,1-1.162-.409,1.392,1.392,0,0,1-.383-1.1,1.354,1.354,0,0,1,0-.37l.064-.409a1.915,1.915,0,0,1,.434-1.06,1.277,1.277,0,0,1,.958-.306h.306a1.277,1.277,0,0,0,1.277-.766,11.006,11.006,0,0,1,4.022-4.507A10.112,10.112,0,0,1,55.1,23.5a9.384,9.384,0,0,1,2.9-.383,8.937,8.937,0,0,1,2.86.549,7.265,7.265,0,0,1,2.285,1.277,5.95,5.95,0,0,1,1.507,1.9,4.724,4.724,0,0,1,.5,2.3,3.4,3.4,0,0,1-.383,1.532,3.332,3.332,0,0,1-1,1.2,4.941,4.941,0,0,1-1.519.817,7.979,7.979,0,0,1-2.017.485l-7.214.485a1.124,1.124,0,0,0-.677.192.651.651,0,0,0-.281.549,1.647,1.647,0,0,0,.37,1.047,3.716,3.716,0,0,0,1.047.919,7.01,7.01,0,0,0,1.532.664,7.163,7.163,0,0,0,1.813.281,9.116,9.116,0,0,0,1.839-.115,12.5,12.5,0,0,0,1.877-.447,13.163,13.163,0,0,0,1.813-.741A10.981,10.981,0,0,0,64.063,35.007ZM59.62,29.5a.958.958,0,0,0,.549-.281.792.792,0,0,0,.243-.575.843.843,0,0,0-.2-.587,2,2,0,0,0-.6-.511,3.639,3.639,0,0,0-.907-.37,4.3,4.3,0,0,0-1.1-.166,7,7,0,0,0-1.749.192,7.992,7.992,0,0,0-1.634.6,4.98,4.98,0,0,0-1.277.855,1.481,1.481,0,0,0-.485.945c0,.319.179.485.562.5a11.055,11.055,0,0,0,1.149,0l1.749-.128,1.928-.2c.651-.128,1.226-.192,1.711-.268Z" transform="translate(12.535 6.419)"/><path class="a" d="M74.7,22.172a6.971,6.971,0,0,1,2.183.421,6.141,6.141,0,0,1,1.839,1.034A4.929,4.929,0,0,1,80,25.159a3.831,3.831,0,0,1,.383,1.9,1.8,1.8,0,0,1-.217.843,2.554,2.554,0,0,1-.549.677,2.783,2.783,0,0,1-.779.46,2.285,2.285,0,0,1-.881.14h-.23v1.66a9.869,9.869,0,0,0,.7,4.354A2.222,2.222,0,0,0,80.383,36.7a3,3,0,0,0,.779,0,4.854,4.854,0,0,0,.651-.179l.575-.179a2.017,2.017,0,0,1,.549,0,1.047,1.047,0,0,1,.817.447,1.443,1.443,0,0,1,.332,1,1.9,1.9,0,0,1-.485,1.149,4.3,4.3,0,0,1-1.2,1.009,6.69,6.69,0,0,1-1.66.7,5.759,5.759,0,0,1-1.851.23,3.728,3.728,0,0,1-2.8-1.43,7.967,7.967,0,0,1-1.609-3.984c-.077-.268-.179-.421-.319-.421a.575.575,0,0,0-.447.23,14.951,14.951,0,0,1-4.494,3.741A9.307,9.307,0,0,1,64.6,40.161a5.541,5.541,0,0,1-1.9-.37,4.035,4.035,0,0,1-1.4-.932,3.83,3.83,0,0,1-.868-1.583,4.98,4.98,0,0,1-.255-1.839A7.865,7.865,0,0,1,60.9,32.45,15.4,15.4,0,0,1,62.7,29.4a20.958,20.958,0,0,1,5.618-5.184,15.129,15.129,0,0,1,3.243-1.57,8.337,8.337,0,0,1,3.141-.472Zm-.919,7.15a4.851,4.851,0,0,1,.715-1.009,1.609,1.609,0,0,1,.907-.4c.306,0,.46-.128.472-.281a.766.766,0,0,0-.115-.357,7.74,7.74,0,0,0-.8-.97,1.673,1.673,0,0,0-1.149-.434,4.328,4.328,0,0,0-1.775.4,11.338,11.338,0,0,0-2.017,1.149A19.524,19.524,0,0,0,68,29.079a16.434,16.434,0,0,0-1.775,1.915,11.058,11.058,0,0,0-1.277,1.966,4.507,4.507,0,0,0-.511,1.762,1.481,1.481,0,0,0,.357,1.111,1.379,1.379,0,0,0,1.034.421,5.886,5.886,0,0,0,3.83-1.673,21.233,21.233,0,0,0,4.124-5.26Z" transform="translate(16.644 6.155)"/><path class="b" d="M7.952,47.69a1.009,1.009,0,0,0-1-.689,1.034,1.034,0,0,0-.983.689l-3.945,9.4a1.072,1.072,0,0,0,0,1.021,1.047,1.047,0,0,0,1.494.383,1.162,1.162,0,0,0,.421-.5l.715-1.762H9.267l.715,1.762a.983.983,0,0,0,.4.485,1.149,1.149,0,0,0,.575.166,1,1,0,0,0,.868-.46,1.047,1.047,0,0,0,.077-1.009ZM5.4,54.329,6.956,50.5,8.5,54.329Z" transform="translate(0.517 13.029)"/><path class="b" d="M19.2,48.623a5.26,5.26,0,0,0-1.826-1.277A6.1,6.1,0,0,0,15.063,47H12.51a1.021,1.021,0,0,0-.741.294,1,1,0,0,0-.319.753V57.56a1,1,0,0,0,.306.741,1.034,1.034,0,0,0,.753.306h2.554a6.1,6.1,0,0,0,2.311-.421A5.26,5.26,0,0,0,19.2,56.909a5.452,5.452,0,0,0,1.2-1.851,6.818,6.818,0,0,0,0-4.647,5.273,5.273,0,0,0-1.2-1.787Zm-.434,4.162a4.162,4.162,0,0,1-.472,2.017,3.562,3.562,0,0,1-3.23,1.864H13.569v-7.75h1.494a3.83,3.83,0,0,1,1.915.485,3.613,3.613,0,0,1,1.277,1.353,4.188,4.188,0,0,1,.511,2.03Z" transform="translate(3.161 13.028)"/><path class="b" d="M29.441,47a.932.932,0,0,0-.958.626l-3.307,7.788-3.243-7.788A.97.97,0,0,0,20.976,47a.919.919,0,0,0-.881.485,1.277,1.277,0,0,0,0,1.06l4.111,9.41a1.021,1.021,0,0,0,.958.651,1,1,0,0,0,.587-.179,1.136,1.136,0,0,0,.357-.472l4.162-9.537a1.034,1.034,0,0,0,0-.945.907.907,0,0,0-.83-.472Z" transform="translate(5.522 13.029)"/><path class="b" d="M37.281,48.969a1.06,1.06,0,0,0,.741-.268.932.932,0,0,0,.294-.7.97.97,0,0,0-.294-.728,1,1,0,0,0-.741-.281H30.9a1.047,1.047,0,0,0-.741.294,1.009,1.009,0,0,0-.306.753v9.512a1.021,1.021,0,0,0,.306.741.983.983,0,0,0,.741.306h6.384a1,1,0,0,0,.741-.281.97.97,0,0,0,.294-.728.983.983,0,0,0-.294-.715,1.06,1.06,0,0,0-.741-.268h-5.3V53.732H35.7a1.009,1.009,0,0,0,.741-.281,1,1,0,0,0,0-1.417,1.009,1.009,0,0,0-.741-.281H31.982V48.969Z" transform="translate(8.253 13.026)"/><path class="b" d="M46.192,47.29a1.009,1.009,0,0,0-.306.753v6.729l-5.567-7.393a1.021,1.021,0,0,0-1.839.664v9.512a1.06,1.06,0,0,0,.294.741,1.072,1.072,0,0,0,1.494,0,1.009,1.009,0,0,0,.294-.741V50.839l5.554,7.38a.83.83,0,0,0,.4.294,1.034,1.034,0,0,0,1.456-.958V48.043a1.124,1.124,0,0,0-.281-.753,1.1,1.1,0,0,0-1.494,0Z" transform="translate(10.642 13.021)"/><path class="b" d="M56.11,47H48.59a1,1,0,1,0,0,1.979h2.72v8.58a1.047,1.047,0,0,0,1.047,1.047,1.034,1.034,0,0,0,.753-.306,1.047,1.047,0,0,0,.294-.741V48.968H56.11a.919.919,0,0,0,.7-.281.932.932,0,0,0,.294-.7,1.009,1.009,0,0,0-.281-.715A.97.97,0,0,0,56.11,47Z" transform="translate(13.134 13.028)"/><path class="b" d="M64.609,47.284a1.009,1.009,0,0,0-.306.753v6.626a2.094,2.094,0,0,1-.332,1.162,2.349,2.349,0,0,1-.945.8,3.83,3.83,0,0,1-2.911,0,2.3,2.3,0,0,1-.983-.8,2.043,2.043,0,0,1-.345-1.162V48.037a1.047,1.047,0,0,0-.294-.753,1.124,1.124,0,0,0-1.507,0,1.06,1.06,0,0,0-.306.753v6.626a3.92,3.92,0,0,0,.638,2.2,4.264,4.264,0,0,0,1.749,1.494,5.924,5.924,0,0,0,2.554.523,5.631,5.631,0,0,0,2.464-.523,4.2,4.2,0,0,0,1.7-1.494,3.907,3.907,0,0,0,.6-2.2V48.037a1.124,1.124,0,0,0-.281-.753,1.1,1.1,0,0,0-1.494,0Z" transform="translate(15.679 13.027)"/><path class="b" d="M72.631,53.818a3.5,3.5,0,0,0,1.277-1.187,3.549,3.549,0,0,0,.5-1.877,3.83,3.83,0,0,0-.5-1.953,3.69,3.69,0,0,0-1.392-1.277A4.213,4.213,0,0,0,70.461,47H67.907a1.06,1.06,0,0,0-.741.294,1.009,1.009,0,0,0-.306.753v9.512a1.021,1.021,0,0,0,.306.741,1.085,1.085,0,0,0,1.507,0,1.06,1.06,0,0,0,.294-.741V54.367h1.558l2.311,3.715a.945.945,0,0,0,.4.383,1.008,1.008,0,0,0,.511.128.97.97,0,0,0,.919-.536,1.034,1.034,0,0,0-.089-1.072Zm-.294-3.064a1.545,1.545,0,0,1-.23.843,1.6,1.6,0,0,1-.651.575,2.209,2.209,0,0,1-1,.2H68.992V48.966h1.468a2.056,2.056,0,0,1,1,.23,1.673,1.673,0,0,1,.638.626,1.724,1.724,0,0,1,.243.932Z" transform="translate(18.497 13.029)"/><path class="b" d="M82.144,56.6h-5.3V53.732H80.56a1.009,1.009,0,0,0,.741-.281,1,1,0,0,0,0-1.417,1.009,1.009,0,0,0-.741-.281H76.845V48.969h5.3a1.06,1.06,0,0,0,.741-.268.932.932,0,0,0,.294-.7.97.97,0,0,0-.294-.728,1.009,1.009,0,0,0-.741-.281H75.76a1.047,1.047,0,0,0-1.06,1.047v9.512A1.047,1.047,0,0,0,75.76,58.6h6.384a1.009,1.009,0,0,0,.741-.281.97.97,0,0,0,.294-.728.983.983,0,0,0-.294-.715A1.06,1.06,0,0,0,82.144,56.6Z" transform="translate(20.667 13.026)"/><path class="b" d="M108.358,48.527a1.277,1.277,0,0,1-.613-.153,41.214,41.214,0,0,0-21.526-4.941,82.211,82.211,0,0,0-12.091,1.8c-1.979.4-4.035.8-6.077,1.136-4.979.8-12.359,1.558-18.973-1.149a42.836,42.836,0,0,1-5.222-2.656,44.813,44.813,0,0,0-4.2-2.247c-6.192-2.86-13.853-3.166-23.416-.97-3.4.766-6.818,1.787-10.125,2.771l-3.6,1.06A1.277,1.277,0,0,1,1.8,40.726l3.588-1.06c3.307-.932,6.805-2.017,10.278-2.809C25.8,34.534,34,34.891,40.715,37.93c1.545.7,3,1.558,4.418,2.375a41,41,0,0,0,4.916,2.554c4.609,1.877,10.176,2.26,17.594.983,2-.319,4.035-.728,5.988-1.111A85.377,85.377,0,0,1,86.1,40.879a43.589,43.589,0,0,1,22.867,5.26,1.274,1.274,0,0,1-.613,2.388Z" transform="translate(0.236 9.804)"/></g></g></svg>